<svg width="1009" height="662" xmlns="http://www.w3.org/2000/svg" xmlns:xlink="http://www.w3.org/1999/xlink" overflow="hidden"><defs><clipPath id="clip0"><rect x="0" y="0" width="1009" height="662"/></clipPath></defs><g clip-path="url(#clip0)"><path d="M801.215 403.122 795.807 406.758 790.548 410.337 785.442 413.867 780.494 417.354 775.707 420.807 771.082 424.233 766.621 427.64 762.324 431.035 758.191 434.424 754.22 437.815 750.409 441.215 746.757 444.628 743.258 448.062 739.91 451.521 736.708 455.012 733.646 458.537 730.72 462.102 727.922 465.711 725.247 469.367 722.688 473.073 720.238 476.831 717.888 480.645 715.633 484.515 713.464 488.443 711.373 492.43 709.352 496.476 707.394 500.583 705.491 504.749 703.634 508.975 701.818 513.259 700.033 517.602 698.274 522.001 696.533 526.456 694.803 530.966 693.079 535.529 691.354 540.144 689.624 544.81 687.883 549.525 686.126 554.288 684.35 559.099 682.549 563.956 680.72 568.857 678.856 573.799 676.954 578.781 675.01 583.8 673.017 588.853 670.972 593.935 668.869 599.045 666.704 604.176 664.473 609.325 662.17 614.487 659.792 619.657 657.333 624.83 654.79 629.999 652.159 635.158 649.435 640.302 646.615 645.423 643.696 650.515 640.675 655.57 637.547 660.581 634.311 665.54 630.965 670.441 627.506 675.274 623.932 680.033 620.243 684.708 616.437 689.293 612.514 693.778 608.473 698.156 604.314 702.42 600.039 706.56 595.648 710.57 591.143 714.442 586.525 718.169 581.796 721.743 576.96 725.159 572.02 728.409 566.978 731.489 561.838 734.391 556.606 737.112 551.284 739.647 545.878 741.992 540.393 744.142 534.835 746.097 529.208 747.852 523.519 749.408 517.774 750.762 511.979 751.915 506.139 752.867 500.262 753.619 494.354 754.173 488.421 754.533 482.469 754.701 476.504 754.681 470.534 754.48 464.562 754.103 458.597 753.557 452.642 752.852 446.704 751.996 440.787 751 434.895 749.874 429.033 748.629 423.203 747.277 417.409 745.832 411.654 744.306 405.937 742.712 400.261 741.064 394.627 739.376 389.032 737.661 383.478 735.934 377.961 734.207 372.48 732.496 367.032 730.812 361.613 729.169 356.219 727.58 350.846 726.055 345.487 724.607 340.138 723.246 334.792 721.982 329.442 720.823 324.082 719.778 318.704 718.853 313.302 718.054 307.867 717.385 302.392 716.85 296.87 716.451 291.294 716.188 285.654 716.063 279.946 716.074 274.161 716.219 268.292 716.498 262.334 716.907 256.278 717.443 250.119 718.101 243.851 718.876 237.468 719.763 230.966 720.755 224.339 721.845 217.584 723.026 210.696 724.29 203.672 725.627 196.51 727.029 189.207 728.485 181.761 729.987 174.173 731.523 166.44 733.082 158.564 734.654 150.545 736.227 142.385 737.79 134.085 739.331 125.649 740.839 117.08 742.301 108.38 743.705 99.5562 745.041 90.6118 746.296 81.5529 747.459 72.3856 748.518 63.1166 749.463 53.753 750.282 44.3023 750.966 34.7727 751.503 25.1725 751.884 15.5106 752.1 5.79605 752.142-3.96166 752.001-13.7528 751.669-23.5676 751.139-33.3957 750.404-43.227 749.458-53.0512 748.295-62.8577 746.91-72.6361 745.298-82.376 743.455-92.067 741.379-101.699 739.066-111.261 736.514-120.744 733.722-130.138 730.69-139.433 727.416-148.62 723.901-157.688 720.146-166.629 716.151-175.432 711.917-184.086 707.444-192.582 702.735-200.908 697.791-209.056 692.614-217.015 687.207-224.774 681.573-232.325 675.715-239.657 669.637-246.761 663.344-253.628 656.84-260.25 650.13-266.618 643.22-272.724 636.117-278.561 628.825-284.121 621.353-289.398 613.707-294.385 605.894-299.077 597.922-303.468 589.8-307.553 581.535-311.328 573.136-314.788 564.611-317.929 555.969-320.748 547.219-323.241 538.37-325.405 529.431-327.238 520.412-328.735 511.32-329.896 502.166-330.717 492.958-331.198 483.708-331.338 474.423-331.137 465.114-330.598 455.792-329.723 446.465-328.514 437.145-326.977 427.84-325.115 418.562-322.935 409.319-320.444 400.121-317.65 390.978-314.559 381.898-311.182 372.89-307.529 363.963-303.61 355.125-299.435 346.382-295.017 337.743-290.369 329.213-285.502 320.799-280.43 312.506-275.167 304.34-269.727 296.304-264.125 288.404-258.373 280.64-252.489 273.018-246.485 265.537-240.378 258.2-234.182 251.008-227.911 243.96-221.581 237.056-215.206 230.295-208.801 223.675-202.379 217.194-195.954 210.849-189.539 204.636-183.148 198.553-176.792 192.593-170.483 186.754-164.233 181.029-158.051 175.412-151.949 169.899-145.935 164.483-140.017 159.157-134.204 153.914-128.503 148.748-122.919 143.652-117.458 138.619-112.125 133.641-106.923 128.712-101.855 123.824-96.9245 118.97-92.1315 114.144-87.4765 109.339-82.9585 104.548-78.5746 99.7665-74.3209 94.989-70.1922 90.2114-66.1821 85.4301-62.2833 80.6421-58.4876 75.8452-54.7859 71.038-51.1687 66.2199-47.6256 61.3908-44.1463 56.5516-40.7196 51.7037-37.3346 46.8493-33.98 41.9912-30.6447 37.1329-27.3176 32.2783-23.988 27.4318-20.6453 22.5985-17.2795 17.7837-13.881 12.9929-10.4408 8.23207-6.95069 3.50725-3.403-1.17542 0.209038-5.80992 3.89142-10.3903 7.6491-14.9106 11.4863-19.3654 15.406-23.7497 19.4105-28.0587 23.5007-32.2885 27.6768-36.4356 31.9379-40.4976 36.2824-44.4724 40.7083-48.3581 45.2132-52.1535 49.7947-55.8575 54.4497-59.4695 59.175-62.9893 63.9672-66.4169 68.8227-69.7528 73.7377-72.9979 78.7083-76.1535 83.7304-79.2211 88.8-82.2025 93.913-85.1001 99.0653-87.9164 104.253-90.6541 109.472-93.3164 114.718-95.9066 119.988-98.4282 125.279-100.885 130.586-103.28 135.906-105.619 141.237-107.905 146.576-110.141 151.921-112.333 157.268-114.485 162.617-116.6 167.965-118.682 173.311-120.737 178.654-122.767 183.992-124.776 189.327-126.768 194.656-128.747 199.981-130.715 205.301-132.675 210.616-134.631 215.928-136.584 221.237-138.537 226.545-140.491 231.852-142.449 237.16-144.412 242.471-146.38 247.787-148.355 253.108-150.336 258.438-152.325 263.778-154.32 269.13-156.321 274.496-158.328 279.878-160.339 285.278-162.354 290.699-164.371 296.142-166.388 301.61-168.403 307.104-170.415 312.625-172.421 318.177-174.418 323.76-176.404 329.376-178.375 335.027-180.328 340.714-182.259 346.438-184.165 352.2-186.04 358.001-187.882 363.842-189.685 369.724-191.446 375.645-193.159 381.607-194.821 387.61-196.427 393.653-197.973 399.736-199.455 405.857-200.868 412.017-202.208 418.214-203.472 424.446-204.655 430.714-205.754 437.014-206.766 443.346-207.687 449.707-208.513 456.096-209.242 462.51-209.871 468.948-210.397 475.407-210.817 481.885-211.129 488.379-211.33 494.887-211.417 501.405-211.387 507.931-211.239 514.462-210.969 520.994-210.577 527.525-210.06 534.053-209.418 540.573-208.65 547.083-207.758 553.581-206.741 560.064-205.601 566.531-204.34 572.978-202.959 579.405-201.461 585.81-199.849 592.191-198.126 598.548-196.296 604.88-194.362 611.187-192.329 617.468-190.2 623.724-187.98 629.955-185.674 636.162-183.286 642.347-180.82 648.51-178.282 654.653-175.676 660.778-173.006 666.887-170.277 672.983-167.493 679.068-164.658 685.144-161.775 691.215-158.849 697.283-155.883 703.351-152.88 709.422-149.842 715.499-146.772 721.584-143.672 727.682-140.543 733.794-137.387 739.924-134.204 746.073-130.995 752.244-127.76 758.438-124.498 764.659-121.208 770.906-117.89 777.182-114.543 783.487-111.163 789.821-107.748 796.184-104.297 802.577-100.806 808.997-97.2719 815.445-93.6913 821.918-90.0605 828.414-86.3758 834.93-82.6329 841.463-78.8277 848.009-74.9558 854.564-71.0122 861.121-66.9917 867.674-62.8886 874.215-58.6974 880.735-54.4122 887.226-50.0271 893.677-45.5364 900.077-40.9348 906.415-36.2168 912.679-31.3776 918.856-26.4127 924.934-21.3179 930.899-16.0897 936.739-10.7251 942.439-5.22156 947.986 0.422591 953.366 6.20854 958.565 12.1367 963.572 18.207 968.371 24.4183 972.95 30.769 977.297 37.2568 981.399 43.8786 985.246 50.6308 988.824 57.5088 992.125 64.5076 995.138 71.6217 997.854 78.8448 1000.26 86.1699 1002.36 93.5899 1004.14 101.097 1005.59 108.683 1006.7 116.338 1007.49 124.055 1007.93 131.823 1008.02 139.633 1007.78 147.475 1007.19 155.338 1006.26 163.213 1004.99 171.088 1003.38 178.953 1001.43 186.798 999.162 194.612 996.569 202.385 993.663 210.108 990.451 217.77 986.943 225.362 983.148 232.875 979.078 240.3 974.744 247.629 970.16 254.854 965.337 261.968 960.292 268.965 955.037 275.837 949.587 282.581 943.958 289.19 938.166 295.662 932.227 301.992 926.157 308.177 919.972 314.216 913.689 320.107 907.325 325.849 900.894 331.442 894.415 336.888 887.903 342.187 881.373 347.342 874.842 352.355 868.324 357.229 861.833 361.968 855.384 366.576 848.99 371.059 842.664 375.421 836.419 379.669 830.265 383.809 824.213 387.847 818.274 391.79 812.455 395.645 806.767 399.42 801.215 403.122Z" fill="#159937" fill-rule="evenodd"/></g></svg>